<svg width="96" height="96" xmlns="http://www.w3.org/2000/svg" xmlns:xlink="http://www.w3.org/1999/xlink" overflow="hidden"><defs><clipPath id="clip0"><rect x="640" y="422" width="96" height="96"/></clipPath></defs><g clip-path="url(#clip0)" transform="translate(-640 -422)"><path d="M724 453.009 698 453.009 698 446.009C697.993 443.803 696.206 442.016 694 442.009L652 442.009C649.794 442.016 648.007 443.803 648 446.009L648 473.017C648.007 475.223 649.794 477.01 652 477.017L658 477.017 658 487.017 668 477.017 678 477.017 678 484.017C678.007 486.223 679.794 488.01 682 488.017L708 488.017 718 498.017 718 488.017 724 488.017C726.206 488.01 727.993 486.223 728 484.017L728 457.01C727.994 454.803 726.207 453.016 724 453.009ZM678 457.009 678 475.018 667.174 475.018 666.588 475.604 660 482.192 660 475.018 652 475.018C650.895 475.018 650 474.123 650 473.018L650 446.01C650 444.905 650.895 444.01 652 444.01L694 444.01C695.105 444.01 696 444.905 696 446.01L696 453.01 682 453.01C679.794 453.017 678.007 454.804 678 457.01ZM726 484.017C726 485.122 725.105 486.017 724 486.017L716 486.017 716 493.191 709.418 486.6 708.832 486.014 682 486.014C680.895 486.014 680 485.119 680 484.014L680 457.01C680 455.905 680.895 455.01 682 455.01L724 455.01C725.105 455.01 726 455.905 726 457.01Z"/></g></svg>